<svg xmlns="http://www.w3.org/2000/svg" viewBox="0 0 512 512">
  <defs>
    <linearGradient id="bg" x1="0%" y1="0%" x2="100%" y2="100%">
      <stop offset="0%" style="stop-color:#6366f1"/>
      <stop offset="100%" style="stop-color:#4f46e5"/>
    </linearGradient>
  </defs>
  <rect width="512" height="512" rx="96" fill="url(#bg)"/>
  <g fill="none" stroke="#ffffff" stroke-width="28" stroke-linecap="round" stroke-linejoin="round">
    <path d="M368 192H144m224 0a32 32 0 0132 32v96a32 32 0 01-32 32H144a32 32 0 01-32-32v-96a32 32 0 0132-32m224 0v-32a32 32 0 00-32-32M144 192v-32a32 32 0 0132-32m0 0v-32a32 32 0 0132-32h96a32 32 0 0132 32v32m-160 0h160"/>
  </g>
</svg>
